<?xml version="1.0" standalone="no"?>
<!DOCTYPE svg PUBLIC "-//W3C//DTD SVG 20010904//EN"
 "http://www.w3.org/TR/2001/REC-SVG-20010904/DTD/svg10.dtd">
<svg version="1.0" xmlns="http://www.w3.org/2000/svg"
 width="1254.000000pt" height="1254.000000pt" viewBox="0 0 1254.000000 1254.000000"
 preserveAspectRatio="xMidYMid meet">

<g transform="translate(0.000000,1254.000000) scale(0.100000,-0.100000)"
fill="#000000" stroke="none">
<path d="M6100 10113 c-378 -22 -753 -165 -1055 -404 -70 -55 -259 -248 -294
-299 -16 -25 -7 -19 34 23 140 146 267 238 450 330 455 228 1026 245 1485 45
522 -228 902 -689 1021 -1235 30 -140 37 -412 15 -566 -35 -243 -113 -463
-229 -652 -106 -172 -287 -373 -437 -487 -249 -189 -573 -312 -892 -338 -196
-16 -456 11 -631 66 -122 39 -115 37 -96 25 26 -17 207 -80 289 -101 139 -35
265 -50 427 -50 297 0 536 56 793 185 164 83 342 209 450 319 24 25 49 46 55
46 6 0 35 -24 64 -54 52 -52 53 -55 42 -87 -24 -69 -16 -80 346 -440 186 -185
352 -344 370 -353 37 -19 115 -21 146 -4 47 24 157 132 177 172 23 49 26 103
6 149 -8 18 -166 183 -357 374 -299 297 -349 342 -382 348 -20 4 -48 5 -61 3
-20 -4 -38 9 -97 68 l-72 73 41 68 c85 142 175 360 222 542 48 185 68 421 51
601 -36 369 -149 661 -367 950 -251 332 -627 564 -1053 649 -93 19 -337 44
-386 39 -11 -1 -45 -3 -75 -5z"/>
<path d="M5397 9658 c-260 -56 -308 -404 -73 -525 69 -36 181 -39 241 -6 143
76 199 235 132 375 -57 116 -183 182 -300 156z"/>
<path d="M5634 9022 c-50 -3 -53 -5 -100 -64 l-48 -61 48 -303 c27 -167 45
-314 42 -326 -4 -13 -35 -54 -70 -92 l-64 -69 -20 24 c-11 13 -41 51 -67 83
l-48 59 11 76 c6 42 23 150 37 241 14 91 30 196 35 234 l10 69 -42 63 -43 63
-87 1 -88 0 0 -713 c0 -808 2 -788 -74 -863 -83 -84 -202 -85 -291 -3 -56 52
-75 107 -82 237 l-6 102 -235 0 -235 0 6 -147 c4 -107 11 -168 26 -220 68
-236 215 -419 407 -508 99 -46 164 -59 284 -58 257 1 496 116 636 306 66 90
132 230 150 322 19 91 20 186 17 1011 l-3 541 -27 -1 c-16 -1 -51 -2 -79 -4z"/>
<path d="M7115 9022 c-9 -6 -134 -193 -337 -507 -191 -293 -340 -521 -347
-528 -4 -4 -31 32 -61 80 -113 187 -279 458 -429 699 l-156 252 -3 -446 -2
-445 46 -66 c25 -36 64 -93 88 -126 58 -82 113 -161 311 -448 146 -212 174
-247 195 -247 22 0 47 32 185 242 377 571 425 642 425 633 0 -5 0 -256 0 -557
0 -410 3 -548 11 -548 20 0 218 201 284 289 35 47 91 131 124 186 l61 102 0
719 1 719 -193 2 c-106 2 -198 0 -203 -5z"/>
<path d="M1649 5673 c-4 -1085 -1 -1037 -67 -1113 -49 -58 -102 -82 -193 -88
-90 -5 -136 8 -185 51 -45 38 -65 79 -73 142 l-6 50 -140 0 -140 0 3 -63 c12
-266 220 -442 522 -442 277 0 480 148 545 396 13 49 15 155 15 676 l0 618
-140 0 -140 0 -1 -227z"/>
<path d="M3750 5085 l0 -815 130 0 130 0 0 61 0 61 50 -45 c65 -58 117 -83
207 -99 249 -42 486 124 553 387 60 233 -16 488 -183 614 -173 131 -428 129
-574 -3 -22 -20 -43 -36 -46 -36 -2 0 -5 15 -4 33 0 17 0 173 -1 345 l-2 312
-130 0 -130 0 0 -815z m665 11 c62 -29 117 -86 147 -151 19 -41 23 -67 23
-150 0 -95 -2 -103 -34 -163 -64 -118 -154 -169 -283 -160 -158 12 -258 137
-258 323 0 154 71 265 197 311 62 22 150 17 208 -10z"/>
<path d="M10311 5782 c-53 -27 -74 -63 -79 -135 -3 -52 0 -67 20 -96 48 -72
146 -97 219 -55 41 23 79 93 79 144 0 52 -38 120 -80 142 -44 23 -115 23 -159
0z"/>
<path d="M6138 5752 l-118 -3 0 -739 0 -740 130 0 130 0 0 507 c0 425 2 505
13 493 8 -8 51 -76 97 -150 46 -74 100 -162 120 -195 21 -33 77 -124 125 -202
l87 -143 61 0 62 0 76 123 c42 67 139 223 215 346 l139 224 3 -502 2 -501 135
0 135 0 0 738 c0 406 -2 741 -4 743 -2 2 -63 2 -136 -1 l-132 -5 -113 -180
c-119 -188 -248 -395 -330 -528 l-48 -79 -51 81 c-28 45 -139 223 -246 395
-137 222 -201 315 -215 318 -11 2 -73 2 -137 0z"/>
<path d="M8968 5483 l-3 -168 -75 -5 -75 -5 0 -105 0 -105 78 -3 77 -3 0 -298
c0 -342 5 -375 71 -446 60 -65 124 -89 239 -89 52 -1 112 3 133 7 l37 8 0 110
0 111 -57 -6 c-70 -7 -118 9 -147 47 -20 27 -21 40 -21 290 l0 262 113 3 112
3 0 109 0 109 -112 3 -113 3 -3 168 -2 167 -125 0 -125 0 -2 -167z"/>
<path d="M2680 5625 c-177 -40 -360 -171 -460 -330 -135 -213 -153 -502 -43
-718 94 -187 243 -317 438 -383 64 -22 104 -28 200 -32 153 -5 248 17 388 91
l98 52 45 -47 c44 -47 45 -48 33 -82 l-12 -34 197 -204 c109 -112 211 -209
228 -216 42 -18 83 -7 130 36 48 43 68 80 68 125 0 44 -4 48 -223 273 -180
183 -184 187 -218 181 -28 -5 -39 -2 -64 22 -71 66 -71 63 -31 119 83 115 127
262 127 422 -1 323 -202 601 -511 708 -94 32 -286 40 -390 17z m339 -185 c173
-58 318 -206 371 -379 22 -70 27 -204 10 -281 -38 -168 -139 -301 -290 -379
-234 -122 -491 -83 -676 103 -178 178 -214 438 -93 667 70 132 226 251 372
285 85 19 224 12 306 -16z"/>
<path d="M2782 5201 c-18 -12 -37 -33 -42 -47 -25 -65 0 -157 50 -184 12 -6
39 -12 62 -12 33 0 46 6 76 36 34 33 37 40 37 96 0 54 -4 63 -31 91 -42 41
-104 49 -152 20z"/>
<path d="M2463 5035 c-26 -18 -47 -77 -39 -110 9 -36 53 -83 86 -90 36 -8 83
17 99 52 12 27 14 103 3 119 -29 42 -108 57 -149 29z"/>
<path d="M3117 5039 c-23 -13 -47 -62 -47 -94 0 -39 29 -82 67 -100 95 -45
180 99 104 176 -23 22 -39 29 -68 29 -21 0 -46 -5 -56 -11z"/>
<path d="M2723 4901 c-23 -11 -46 -28 -52 -39 -17 -32 -14 -197 3 -211 10 -8
16 -9 21 -1 13 21 25 9 25 -28 0 -21 -9 -55 -20 -77 -12 -24 -20 -59 -20 -92
l0 -52 43 -13 c47 -13 206 -14 252 0 l30 9 -3 73 c-1 50 -7 79 -18 91 -20 22
-15 84 6 84 35 1 40 15 40 113 0 53 -4 102 -8 109 -9 15 -93 53 -103 47 -4 -2
-13 -29 -20 -59 -14 -61 -28 -72 -30 -22 -1 17 -2 43 -3 57 -1 18 -7 25 -21
25 -14 0 -19 -6 -18 -20 4 -33 -8 -96 -17 -90 -5 3 -14 30 -21 60 -7 30 -15
55 -18 55 -3 0 -25 -9 -48 -19z"/>
<path d="M2423 4793 c-58 -29 -74 -123 -29 -168 14 -13 27 -33 31 -44 8 -26
100 -106 164 -143 l51 -30 0 34 c0 18 7 62 16 98 l15 65 -26 18 c-23 17 -25
25 -25 91 0 43 -5 77 -12 84 -18 18 -146 14 -185 -5z"/>
<path d="M3088 4799 c-15 -8 -18 -24 -18 -84 0 -68 -2 -75 -26 -94 -26 -21
-26 -22 -15 -79 6 -31 13 -70 16 -86 2 -16 6 -30 8 -33 3 -2 25 5 49 17 54 25
147 106 168 146 8 16 23 36 33 46 19 20 23 81 7 123 -6 15 -24 32 -45 40 -39
17 -151 19 -177 4z"/>
<path d="M11607 5517 l-219 -102 -65 -95 c-36 -52 -88 -126 -115 -163 -28 -40
-45 -73 -41 -80 4 -7 33 -47 64 -90 l57 -78 44 58 c24 32 91 126 148 208 57
83 143 193 191 245 101 110 174 200 162 200 -4 -1 -106 -47 -226 -103z"/>
<path d="M5295 5340 c-114 -18 -225 -79 -272 -149 -51 -75 -61 -206 -24 -285
51 -104 141 -156 364 -211 170 -42 207 -64 207 -127 0 -96 -123 -152 -253
-114 -67 20 -112 55 -129 102 l-13 36 -50 -6 c-27 -4 -78 -12 -113 -18 l-64
-12 7 -35 c19 -98 109 -202 210 -240 112 -42 230 -50 352 -25 101 21 160 52
216 114 108 120 103 306 -11 414 -53 51 -98 70 -263 111 -212 54 -239 69 -239
136 0 51 7 66 43 87 42 26 90 34 149 26 61 -8 107 -38 133 -87 11 -20 27 -37
35 -37 8 0 56 8 107 17 72 14 93 21 93 34 0 56 -61 148 -133 200 -76 55 -239
87 -352 69z"/>
<path d="M8075 5328 c-179 -34 -338 -194 -390 -393 -33 -128 -10 -321 52 -438
37 -70 136 -168 203 -202 108 -55 229 -70 337 -41 58 16 153 75 182 114 l20
27 1 -62 0 -63 120 0 120 0 0 520 0 520 -120 0 -120 0 0 -62 0 -62 -42 43
c-91 91 -220 127 -363 99z m243 -254 c102 -50 153 -136 160 -265 5 -103 -12
-165 -64 -233 -99 -130 -288 -143 -404 -26 -68 67 -93 139 -88 250 6 102 30
160 94 225 78 78 203 98 302 49z"/>
<path d="M9992 5311 c-60 -21 -118 -63 -147 -109 -11 -17 -23 -31 -27 -32 -5
0 -8 32 -8 70 l0 70 -120 0 -120 0 0 -520 0 -520 125 0 125 0 0 288 c0 317 7
368 58 431 44 55 100 82 187 88 l75 6 0 123 0 124 -47 0 c-27 -1 -72 -9 -101
-19z"/>
<path d="M10260 4790 l0 -520 125 0 125 0 0 520 0 520 -125 0 -125 0 0 -520z"/>
<path d="M10662 5278 c12 -18 58 -82 102 -143 43 -60 112 -156 153 -212 40
-56 73 -104 73 -107 0 -5 -41 -65 -128 -187 -123 -171 -219 -307 -235 -332
l-18 -28 138 3 137 3 121 172 c91 131 123 169 131 160 14 -14 220 -302 232
-323 7 -12 36 -14 155 -12 l148 3 -44 60 c-24 33 -64 89 -89 125 -43 63 -358
501 -463 645 -28 39 -73 100 -100 138 l-49 67 -143 0 -144 0 23 -32z"/>
<path d="M2628 3558 c-95 -25 -153 -148 -114 -241 18 -44 78 -95 121 -103 54
-10 121 4 155 32 35 30 37 40 9 49 -13 4 -27 0 -40 -11 -11 -10 -41 -19 -72
-22 -46 -4 -57 -1 -85 23 -52 43 -61 113 -23 184 29 53 128 66 175 22 26 -24
39 -26 55 -7 17 20 -29 61 -84 75 -49 12 -47 12 -97 -1z"/>
<path d="M5710 3396 l0 -176 25 0 25 0 -2 173 c-3 170 -3 172 -25 175 l-23 3
0 -175z"/>
<path d="M7327 3564 c-4 -4 -7 -83 -7 -176 l0 -168 25 0 c25 0 25 1 25 78 0
87 14 112 61 112 41 0 49 -18 49 -107 0 -83 0 -83 26 -83 l26 0 -4 101 c-3 87
-6 103 -23 115 -32 24 -62 27 -96 10 -18 -9 -33 -16 -35 -16 -2 0 -4 30 -6 67
-2 52 -7 68 -18 71 -9 1 -19 0 -23 -4z"/>
<path d="M7841 3560 c-42 -10 -80 -37 -108 -80 -32 -47 -32 -143 0 -191 44
-67 146 -96 224 -64 90 38 130 153 84 243 -24 47 -50 70 -98 88 -43 15 -54 15
-102 4z m99 -53 c40 -20 70 -74 70 -125 0 -38 -5 -50 -39 -83 -34 -35 -44 -39
-88 -39 -80 0 -123 47 -123 136 0 41 5 51 39 85 32 32 46 39 77 39 22 0 50 -6
64 -13z"/>
<path d="M4414 3545 c-4 -9 0 -23 8 -31 20 -20 50 -7 46 20 -4 26 -45 35 -54
11z"/>
<path d="M5187 3553 c-20 -19 -4 -32 46 -35 l52 -3 3 -147 3 -148 24 0 24 0 3
148 3 147 48 3 c39 3 47 6 47 23 0 18 -8 19 -123 19 -68 0 -127 -3 -130 -7z"/>
<path d="M7027 3554 c-14 -15 -6 -43 14 -49 25 -8 42 6 37 31 -3 19 -38 31
-51 18z"/>
<path d="M9896 3544 c-9 -22 17 -49 39 -40 10 3 15 15 13 28 -4 29 -42 37 -52
12z"/>
<path d="M4260 3495 c0 -28 -5 -38 -20 -42 -25 -7 -26 -39 -1 -46 16 -4 18
-16 20 -83 1 -68 4 -82 23 -97 29 -25 83 -19 83 8 0 15 -6 19 -22 17 -31 -4
-45 28 -41 96 3 54 4 57 31 60 19 2 27 9 27 22 0 13 -8 20 -27 22 -25 3 -28 7
-28 38 0 29 -4 36 -22 38 -20 3 -23 -1 -23 -33z"/>
<path d="M6380 3492 c0 -25 -5 -35 -20 -39 -11 -3 -20 -14 -20 -24 0 -12 7
-19 20 -19 18 0 20 -7 20 -80 0 -67 3 -83 21 -101 28 -28 83 -23 87 9 3 19 -1
22 -27 22 l-31 0 0 75 0 75 30 0 c23 0 30 4 30 20 0 15 -7 20 -29 20 -27 0
-30 3 -33 37 -2 30 -7 37 -25 38 -20 1 -23 -3 -23 -33z"/>
<path d="M7165 3517 c-2 -7 -5 -23 -7 -37 -2 -17 -10 -26 -26 -28 -30 -4 -25
-36 6 -40 21 -3 22 -8 22 -87 0 -79 2 -86 24 -100 35 -23 80 -16 84 13 3 19
-1 22 -27 22 l-31 0 0 65 c0 36 -1 68 -2 73 -1 4 11 9 27 12 43 7 46 38 4 42
-30 3 -33 6 -34 37 0 25 -5 35 -18 37 -10 1 -20 -3 -22 -9z"/>
<path d="M9197 3524 c-4 -4 -7 -22 -7 -41 0 -26 -4 -33 -20 -33 -12 0 -20 -7
-20 -16 0 -9 9 -18 20 -21 18 -5 20 -14 20 -84 0 -68 3 -81 22 -99 13 -12 35
-20 55 -20 29 0 33 3 33 25 0 21 -5 25 -30 25 l-30 0 0 75 0 75 30 0 c23 0 30
4 30 20 0 15 -7 20 -29 20 -27 0 -30 3 -33 37 -3 36 -23 54 -41 37z"/>
<path d="M10048 3523 c-13 -3 -18 -14 -18 -39 0 -27 -4 -34 -20 -34 -13 0 -20
-7 -20 -20 0 -13 7 -20 19 -20 17 0 19 -9 22 -86 4 -96 16 -114 76 -114 29 0
33 3 33 26 0 16 -5 24 -12 21 -7 -2 -21 0 -30 5 -15 7 -18 22 -18 78 l0 70 30
0 c23 0 30 4 30 20 0 16 -7 20 -30 20 -28 0 -30 3 -30 34 0 38 -6 45 -32 39z"/>
<path d="M2930 3442 c-46 -23 -75 -79 -65 -129 10 -53 63 -103 109 -103 73 0
136 58 136 125 0 43 -35 94 -75 111 -45 18 -62 18 -105 -4z m110 -59 c16 -21
20 -36 16 -62 -7 -46 -28 -65 -72 -65 -44 0 -74 31 -74 77 0 71 87 104 130 50z"/>
<path d="M3245 3444 c-19 -10 -31 -11 -33 -5 -2 6 -15 11 -28 11 -24 0 -24 0
-24 -115 l0 -115 25 0 c25 0 25 1 25 78 0 87 14 112 61 112 41 0 49 -18 49
-107 0 -82 0 -83 25 -83 25 0 25 1 25 83 0 104 -6 124 -41 142 -35 19 -47 19
-84 -1z"/>
<path d="M3516 3445 c-21 -11 -31 -12 -36 -4 -4 6 -15 9 -25 7 -14 -3 -17 -18
-18 -113 -2 -107 -1 -110 21 -113 21 -3 22 0 22 72 0 84 18 116 64 116 40 0
56 -35 56 -117 0 -66 2 -73 20 -73 19 0 20 7 20 91 0 103 -7 123 -51 138 -40
14 -38 14 -73 -4z"/>
<path d="M3763 3446 c-86 -39 -92 -165 -11 -216 43 -27 109 -22 143 10 23 21
23 24 8 35 -14 10 -22 9 -44 -7 -30 -23 -66 -19 -93 8 -36 35 -21 44 75 44
l92 0 -6 37 c-13 75 -95 120 -164 89z m101 -59 l18 -22 -62 -3 c-34 -2 -64 -1
-66 1 -9 9 8 35 29 45 28 13 57 6 81 -21z"/>
<path d="M4035 3444 c-47 -24 -65 -53 -65 -109 0 -58 17 -88 62 -111 40 -21
102 -13 134 17 22 21 22 23 6 35 -14 10 -20 10 -32 -1 -50 -45 -124 -10 -124
58 0 21 8 45 19 57 21 23 71 26 99 5 27 -20 64 -1 44 22 -15 19 -69 43 -95 43
-10 0 -31 -7 -48 -16z"/>
<path d="M4615 3444 c-19 -10 -31 -11 -33 -5 -2 6 -15 11 -28 11 -24 0 -24 0
-24 -115 l0 -115 25 0 c25 0 25 1 25 78 0 87 14 112 61 112 41 0 49 -18 49
-107 0 -82 0 -83 25 -83 25 0 25 1 25 85 0 94 -11 128 -47 144 -32 14 -42 14
-78 -5z"/>
<path d="M4850 3442 c-64 -35 -77 -129 -27 -188 29 -33 96 -44 132 -20 24 16
25 16 25 -9 0 -56 -77 -85 -128 -49 -18 13 -26 13 -38 3 -13 -10 -12 -14 2
-31 48 -52 159 -43 194 15 17 27 20 51 20 160 l0 127 -24 0 c-13 0 -27 -6 -29
-12 -4 -10 -7 -10 -15 0 -16 23 -74 25 -112 4z m110 -52 c26 -26 26 -81 0
-105 -29 -26 -79 -24 -102 4 -39 50 -9 121 52 121 17 0 39 -9 50 -20z"/>
<path d="M5483 3446 c-34 -16 -43 -40 -19 -49 7 -3 18 -1 24 5 14 14 69 13 88
-3 30 -25 16 -39 -39 -39 -56 0 -89 -19 -102 -60 -19 -61 66 -112 128 -76 20
11 33 14 35 7 2 -6 12 -11 23 -11 17 0 19 8 19 89 0 79 -3 93 -22 115 -29 32
-90 42 -135 22z m91 -122 c45 -17 -10 -82 -59 -70 -34 9 -42 32 -20 56 18 20
49 25 79 14z"/>
<path d="M5883 3445 c-18 -8 -42 -29 -53 -47 -55 -91 15 -199 120 -185 50 6
91 40 73 58 -9 9 -20 8 -47 -5 -42 -20 -80 -13 -101 17 -8 12 -15 25 -15 29 0
5 41 8 90 8 90 0 90 0 90 25 0 42 -29 85 -65 101 -42 17 -51 17 -92 -1z m95
-53 c21 -27 14 -32 -53 -32 -68 0 -77 6 -47 32 33 30 76 29 100 0z"/>
<path d="M6170 3443 c-17 -12 -25 -13 -28 -5 -2 7 -15 12 -28 12 -24 0 -24 0
-24 -115 l0 -115 25 0 c24 0 25 2 25 73 0 90 16 120 63 115 42 -4 57 -35 57
-120 0 -61 2 -68 20 -68 19 0 20 7 20 93 -1 95 -7 114 -47 135 -30 16 -54 15
-83 -5z"/>
<path d="M8198 3444 c-16 -8 -28 -10 -28 -4 0 5 -11 10 -25 10 l-25 0 0 -165
0 -165 25 0 c24 0 25 3 25 61 l0 60 22 -15 c27 -19 74 -20 106 -2 82 45 81
187 -2 221 -44 19 -63 18 -98 -1z m92 -54 c25 -25 26 -80 2 -111 -23 -28 -73
-30 -102 -4 -25 23 -27 90 -3 117 22 24 77 24 103 -2z"/>
<path d="M8495 3444 c-20 -12 -30 -13 -33 -5 -2 6 -15 11 -28 11 l-25 0 3
-162 c3 -160 3 -163 26 -166 21 -3 22 0 22 57 0 34 2 61 5 61 3 0 17 -7 31
-16 53 -35 134 4 155 75 29 97 -72 191 -156 145z m90 -54 c26 -29 25 -85 -2
-112 -62 -62 -153 16 -112 95 16 30 28 37 65 37 19 0 38 -8 49 -20z"/>
<path d="M8763 3444 c-86 -44 -92 -164 -11 -214 39 -24 76 -25 123 -6 41 17
65 60 65 116 0 84 -100 143 -177 104z m107 -54 c25 -25 26 -80 3 -108 -29 -34
-66 -37 -99 -9 -34 29 -39 84 -9 117 24 26 78 27 105 0z"/>
<path d="M9095 3452 c-11 -2 -28 -11 -37 -20 -16 -14 -18 -14 -18 1 0 11 -8
17 -25 17 l-25 0 0 -115 0 -115 25 0 c24 0 25 2 25 69 0 78 23 121 66 121 17
0 24 6 24 19 0 24 -8 29 -35 23z"/>
<path d="M9698 3444 c-16 -8 -28 -10 -28 -4 0 5 -10 10 -22 10 -22 0 -23 -3
-26 -115 l-3 -115 25 0 c26 0 26 1 26 73 0 86 16 117 60 117 44 0 60 -31 60
-117 0 -71 1 -73 25 -73 24 0 25 2 25 69 0 102 -8 130 -44 152 -37 23 -61 23
-98 3z"/>
<path d="M4420 3335 l0 -115 25 0 c29 0 29 7 18 148 -5 71 -8 82 -24 82 -17 0
-19 -10 -19 -115z"/>
<path d="M6630 3443 c0 -5 15 -55 33 -113 32 -101 34 -105 62 -105 27 0 30 5
55 80 l27 80 21 -72 c12 -39 22 -76 22 -82 0 -6 13 -11 29 -11 27 0 31 5 59
83 16 45 33 97 37 115 6 31 5 33 -16 30 -19 -2 -27 -17 -48 -80 -22 -70 -41
-100 -41 -65 0 6 -10 42 -22 80 -18 54 -26 67 -43 67 -17 0 -25 -13 -44 -72
-14 -40 -27 -77 -31 -81 -4 -4 -17 28 -30 73 -20 71 -25 80 -46 80 -13 0 -24
-3 -24 -7z"/>
<path d="M7030 3331 c0 -114 1 -119 20 -114 19 5 20 14 20 119 0 107 -1 114
-20 114 -19 0 -20 -7 -20 -119z"/>
<path d="M9350 3355 c0 -88 2 -98 25 -120 28 -29 79 -33 113 -9 12 8 22 10 22
5 0 -6 11 -11 25 -11 l25 0 0 115 0 115 -25 0 c-24 0 -25 -2 -25 -77 -1 -46
-6 -85 -13 -94 -18 -23 -53 -29 -76 -12 -18 12 -21 25 -21 99 0 83 0 84 -25
84 -25 0 -25 0 -25 -95z"/>
<path d="M9900 3335 l0 -115 25 0 25 0 0 115 0 115 -25 0 -25 0 0 -115z"/>
<path d="M10172 3442 c84 -201 90 -222 78 -252 -9 -21 -19 -30 -35 -30 -21 0
-42 -26 -30 -38 12 -13 68 -4 85 14 14 15 130 290 130 310 0 2 -11 4 -24 4
-21 0 -28 -10 -52 -77 -15 -43 -30 -82 -34 -86 -4 -5 -14 13 -23 40 -34 103
-46 123 -73 123 -14 0 -24 -4 -22 -8z"/>
<path d="M940 3385 l0 -25 595 0 595 0 0 25 0 25 -595 0 -595 0 0 -25z"/>
<path d="M10700 3385 l0 -25 490 0 490 1 0 25 0 24 -490 0 -490 0 0 -25z"/>
</g>
</svg>
